<svg width="28" height="29" viewBox="0 0 28 29" fill="none" xmlns="http://www.w3.org/2000/svg">
<path d="M4.66663 8.66666H23.3333" stroke="white" stroke-width="2" stroke-linecap="round" stroke-linejoin="round"/>
<path d="M5.83337 8.66666L7.00004 22.6667C7.00004 23.2855 7.24587 23.879 7.68346 24.3166C8.12104 24.7542 8.71454 25 9.33337 25H18.6667C19.2855 25 19.879 24.7542 20.3166 24.3166C20.7542 23.879 21 23.2855 21 22.6667L22.1667 8.66666" stroke="white" stroke-width="2" stroke-linecap="round" stroke-linejoin="round"/>
<path d="M10.5 8.66667V5.16667C10.5 4.85725 10.6229 4.5605 10.8417 4.34171C11.0605 4.12292 11.3572 4 11.6667 4H16.3333C16.6428 4 16.9395 4.12292 17.1583 4.34171C17.3771 4.5605 17.5 4.85725 17.5 5.16667V8.66667" stroke="white" stroke-width="2" stroke-linecap="round" stroke-linejoin="round"/>
<path d="M11.6666 14.5L16.3333 19.1667M16.3333 14.5L11.6666 19.1667" stroke="white" stroke-width="2" stroke-linecap="round" stroke-linejoin="round"/>
</svg>
